<?xml version="1.0" encoding="UTF-8"?>
<svg version="1.1" xmlns="http://www.w3.org/2000/svg" width="986" height="986">
<path d="M0 0 C325.38 0 650.76 0 986 0 C986 325.38 986 650.76 986 986 C660.62 986 335.24 986 0 986 C0 660.62 0 335.24 0 0 Z " fill="#FDEAC3" transform="translate(0,0)"/>
<path d="M0 0 C1.26521484 -0.00386719 2.53042969 -0.00773438 3.83398438 -0.01171875 C5.64672852 -0.00978516 5.64672852 -0.00978516 7.49609375 -0.0078125 C9.1366272 -0.00612061 9.1366272 -0.00612061 10.81030273 -0.00439453 C13.5625 0.125 13.5625 0.125 16.5625 1.125 C16.76748798 19.49504567 16.21657896 37.80053245 15.40821624 56.14889765 C15.2365534 60.07299478 15.07120797 63.99735939 14.9050293 67.92169189 C14.61707985 74.7022608 14.32532372 81.48265687 14.0308876 88.26294708 C13.60273206 98.12328003 13.18088008 107.98387537 12.76047657 117.84454152 C12.07467707 133.92680953 11.38434877 150.00887966 10.69091797 166.09082031 C10.02377551 181.5634006 9.358061 197.03604083 8.69482422 212.50878906 C8.63379352 213.93255019 8.63379352 213.93255019 8.57152988 215.38507417 C8.12434317 225.8183532 7.67759896 236.25165114 7.23118401 246.68496323 C7.19156684 247.61082998 7.15194967 248.53669674 7.11113199 249.49062006 C6.8730581 255.05450053 6.8730581 255.05450053 6.63502882 260.6183829 C6.17664309 271.33361787 5.71695542 282.04879507 5.25487881 292.76387154 C4.86033399 301.91316958 4.46706299 311.0625219 4.07470703 320.21191406 C4.0239164 321.39530828 4.0239164 321.39530828 3.97209969 322.60260946 C2.96746905 346.01894068 2.02116141 369.43641209 1.19543648 392.8598671 C0.82235608 403.29792076 0.35290799 413.70928777 -0.4375 424.125 C-2.4175 424.125 -4.3975 424.125 -6.4375 424.125 C-7.98665498 394.85637644 -9.22839214 365.5790836 -10.39249611 336.2928791 C-10.93157267 322.73780292 -11.47978802 309.18309445 -12.02880859 295.62841797 C-12.05729852 294.92463997 -12.08578845 294.22086196 -12.1151417 293.49575736 C-13.43951976 260.7850153 -14.83105215 228.07725148 -16.2408269 195.3700915 C-16.33192978 193.2562606 -16.42298965 191.14242784 -16.5140357 189.02859449 C-17.27024063 171.47222101 -18.02872503 153.91594649 -18.78831666 136.35971924 C-19.19666766 126.92154805 -19.6046832 117.48336241 -20.01245117 108.04516602 C-20.04399451 107.31507175 -20.07553784 106.58497748 -20.10803703 105.83275915 C-20.6331077 93.67897781 -21.15749248 81.52516695 -21.68148917 69.37133926 C-22.02766046 61.34312944 -22.37479467 53.3149621 -22.72267783 45.28682625 C-22.9351558 40.37994472 -23.14694399 35.47303359 -23.35855103 30.56611443 C-23.4566167 28.2955839 -23.55498096 26.02506625 -23.65366173 23.75456238 C-23.78774061 20.66877009 -23.92077371 17.58293444 -24.05354309 14.49708557 C-24.09293292 13.5965549 -24.13232276 12.69602423 -24.17290622 11.76820475 C-24.20814008 10.94434525 -24.24337393 10.12048575 -24.27967548 9.2716608 C-24.31038051 8.56218739 -24.34108554 7.85271397 -24.37272102 7.12174135 C-24.43754016 5.12376211 -24.4375 3.12403041 -24.4375 1.125 C-16.28467474 0.08471798 -8.21086662 -0.0256456 0 0 Z " fill="#FFDFB6" transform="translate(496.4375,211.875)"/>
<path d="M0 0 C2.17945929 2.17945929 2.41019566 2.96549518 3.06175232 5.87579346 C3.24735057 6.6880177 3.43294882 7.50024195 3.62417126 8.33707905 C3.82094621 9.23292304 4.01772116 10.12876703 4.22045898 11.05175781 C4.43449277 11.9984669 4.64852655 12.94517599 4.86904621 13.92057323 C5.58514445 17.09654385 6.29061064 20.27478094 6.99609375 23.453125 C7.50079399 25.7021277 8.00611692 27.95099074 8.51202393 30.19972229 C9.87776502 36.27944324 11.23416363 42.36121448 12.58877182 48.44342422 C13.72399637 53.53494633 14.86474028 58.62522474 16.00560474 63.71548557 C23.53599574 97.3149638 30.98916893 130.93155145 38.39339924 164.55903912 C45.88250652 198.56990954 53.51137311 232.54890423 61.15155029 266.52610779 C61.49228199 268.04142499 61.49228199 268.04142499 61.83989716 269.58735466 C62.29788615 271.62409939 62.75589901 273.66083874 63.21393585 275.69757271 C66.63349506 290.90413417 70.04221561 306.11309139 73.44140625 321.32421875 C73.66009747 322.30283937 73.87878868 323.28146 74.1041069 324.28973579 C76.18641784 333.60868811 78.26749558 342.92791554 80.34766579 352.24734592 C81.09595931 355.59946185 81.84458583 358.95150338 82.59321213 362.303545 C83.11845761 364.65632153 83.64307638 367.00923717 84.16763306 369.36216736 C85.63527706 375.93969708 87.1121342 382.51443899 88.63232422 389.08007812 C88.9917234 390.63622833 88.9917234 390.63622833 89.35838318 392.22381592 C89.78574451 394.06723751 90.21674812 395.909821 90.65248108 397.75128174 C91.47284836 401.28783778 92 404.34899688 92 408 C90.35 408.33 88.7 408.66 87 409 C84.50014124 403.48883108 82.65247358 397.9282959 80.92578125 392.1328125 C80.63825485 391.18099091 80.35072845 390.22916931 80.05448914 389.24850464 C79.13667348 386.20847165 78.22419073 383.16687489 77.3125 380.125 C72.71211662 364.81220542 67.97783496 349.55219044 63.07321167 334.33404541 C59.48536794 323.18802991 55.93123669 312.03113605 52.375 300.875 C52.15199345 300.17542931 51.92898689 299.47585861 51.69922256 298.75508881 C44.18554354 275.17840288 36.80609376 251.56237492 29.50631714 227.91867447 C22.05081037 203.77169799 14.50057415 179.65630914 6.875 155.5625 C6.36954467 153.96536345 5.86409219 152.368226 5.35864258 150.77108765 C5.10934431 149.98334678 4.86004604 149.19560591 4.60319328 148.3839941 C3.35374038 144.43575043 2.1045041 140.48743828 0.85546875 136.5390625 C0.61023342 135.76388338 0.36499809 134.98870426 0.11233139 134.19003487 C-6.07242708 114.63641155 -12.19337953 95.06286805 -18.2902832 75.48168945 C-21.72903951 64.44038485 -25.17579288 53.40291424 -28.71875 42.39453125 C-29.25817259 40.71105603 -29.79748479 39.02754543 -30.33666992 37.34399414 C-31.27875953 34.40318764 -32.23328285 31.46689225 -33.1965332 28.53295898 C-33.78954224 26.68359741 -33.78954224 26.68359741 -34.39453125 24.796875 C-34.73331299 23.75885742 -35.07209473 22.72083984 -35.42114258 21.65136719 C-36.01911503 18.91244655 -36.15690551 17.54172917 -35 15 C-32.51675498 13.52224069 -30.19318458 12.33956541 -27.5625 11.1875 C-26.44113647 10.67799805 -26.44113647 10.67799805 -25.29711914 10.15820312 C-16.99759544 6.44310438 -8.51364275 3.18639261 0 0 Z " fill="#FFDFB6" transform="translate(386,230)"/>
<path d="M0 0 C8.73106219 3.14032754 17.33094852 6.48195797 25.8125 10.25 C26.58255371 10.59095703 27.35260742 10.93191406 28.14599609 11.28320312 C31.30617428 12.70341276 34.1028544 14.0685696 37 16 C35.74050062 22.0874494 34.17671484 27.99461912 32.296875 33.91796875 C32.02714371 34.77852371 31.75741241 35.63907867 31.47950745 36.52571106 C30.57320167 39.41409619 29.66156057 42.30076935 28.75 45.1875 C28.08974342 47.28830323 27.42984265 49.38921831 26.77026367 51.49023438 C25.31369189 56.12747549 23.85473943 60.76395884 22.39404297 65.39990234 C19.86453637 73.42822252 17.34009831 81.45813168 14.81640625 89.48828125 C14.13868572 91.64466073 13.46096149 93.80103905 12.7832346 95.95741653 C12.32438719 97.41737262 11.86554718 98.87733103 11.40671444 100.33729172 C9.99886183 104.81677896 8.59049942 109.29610557 7.18177319 113.77531815 C2.42680108 128.89461826 -2.32298397 144.01548728 -7.046875 159.14453125 C-7.24997158 159.79497532 -7.45306816 160.44541939 -7.66231918 161.11557388 C-9.29020375 166.32951568 -10.91752843 171.54363222 -12.54450226 176.75785828 C-17.66484516 193.16768773 -22.80432706 209.57128861 -27.9765625 225.96484375 C-28.23016352 226.76880396 -28.48376453 227.57276417 -28.74505043 228.40108681 C-31.22177541 236.25265387 -33.69962988 244.10385917 -36.18259907 251.95345402 C-41.62547659 269.16468692 -46.98979453 286.39719227 -52.2280426 303.67193604 C-54.97752801 312.72886339 -57.81931932 321.74993152 -60.75 330.75 C-61.11495827 331.87381073 -61.11495827 331.87381073 -61.48728943 333.02032471 C-62.05103328 334.75586366 -62.61534204 336.49121908 -63.1796875 338.2265625 C-66.83024617 349.49892053 -70.34502156 360.81445158 -73.875 372.125 C-74.1999646 373.16587769 -74.5249292 374.20675537 -74.85974121 375.2791748 C-75.49470362 377.31358052 -76.12935468 379.34808345 -76.76367188 381.38269043 C-77.36640612 383.31563282 -77.96990098 385.24833823 -78.57421875 387.18078613 C-79.83084855 391.20639756 -81.07766903 395.23294177 -82.26269531 399.28027344 C-82.61170898 400.46395508 -82.96072266 401.64763672 -83.3203125 402.8671875 C-83.60406738 403.8557373 -83.88782227 404.84428711 -84.18017578 405.86279297 C-85 408 -85 408 -87 409 C-89.125 408.5625 -89.125 408.5625 -91 408 C-89.40291881 397.12628154 -86.95766788 386.45652925 -84.546875 375.7421875 C-84.09450695 373.72059183 -83.64242199 371.69893281 -83.19059753 369.67721558 C-81.96949702 364.21718789 -80.74435233 358.75807484 -79.51847458 353.29911804 C-78.21896992 347.50887141 -76.92334239 341.7177572 -75.62719727 335.92675781 C-69.64369534 309.20118565 -63.63842889 282.48049078 -57.63549805 255.75927734 C-57.4128959 254.76838167 -57.19029375 253.777486 -56.96094608 252.75656319 C-55.83226995 247.73246358 -54.70344472 242.70839755 -53.57437134 237.68438721 C-46.88392095 207.91232112 -40.23679711 178.1308503 -33.62379456 148.34148788 C-32.4912337 143.23974531 -31.35839763 138.13806384 -30.22558594 133.03637695 C-30.00215893 132.03014817 -29.77873192 131.02391939 -29.54853439 129.98719883 C-28.87091144 126.9354733 -28.19327268 123.88375129 -27.515625 120.83203125 C-27.29225212 119.82608728 -27.06887924 118.82014332 -26.83873749 117.7837162 C-22.005549 96.01861297 -17.16905874 74.25424584 -12.31733799 52.49326515 C-11.1403591 47.21419654 -9.96425442 41.93493724 -8.79049683 36.65515137 C-7.7035972 31.76620287 -6.61424403 26.8778079 -5.52291107 21.98984718 C-5.12283904 20.19596253 -4.72366937 18.40187637 -4.32544708 16.60758018 C-3.78344202 14.16614085 -3.23821866 11.7254427 -2.69213867 9.28491211 C-2.53387572 8.56841618 -2.37561277 7.85192024 -2.21255398 7.11371231 C-1.11414514 2.22829028 -1.11414514 2.22829028 0 0 Z " fill="#FFDFB6" transform="translate(599,230)"/>
<path d="M0 0 C8.8042412 3.71688485 16.24668969 13.06930781 22.75 19.9375 C23.53793945 20.75214722 23.53793945 20.75214722 24.34179688 21.58325195 C27.24255477 24.71130078 28 25.56065676 28 30 C26.93701172 32.12451172 26.93701172 32.12451172 25.4296875 34.4296875 C24.59050781 35.7290625 24.59050781 35.7290625 23.734375 37.0546875 C22.81398438 38.45074219 22.81398438 38.45074219 21.875 39.875 C20.58049144 41.87224177 19.28622728 43.86964197 17.9921875 45.8671875 C17.32670898 46.88780273 16.66123047 47.90841797 15.97558594 48.95996094 C12.94868227 53.61777167 9.97538526 58.30918388 7 63 C5.83362873 64.83352128 4.66696103 66.66685402 3.5 68.5 C2.9225 69.4075 2.345 70.315 1.75 71.25 C-3.5 79.5 -3.5 79.5 -5.25048828 82.25073242 C-6.41556948 84.08159753 -7.58060864 85.9124894 -8.74560547 87.7434082 C-11.68618321 92.36472713 -14.62752092 96.9855592 -17.5703125 101.60546875 C-23.06159314 110.22774274 -28.54608279 118.85403331 -34 127.5 C-40.04581782 137.08429281 -46.12979934 146.64410607 -52.21777344 156.20166016 C-55.14654813 160.80023762 -58.07317691 165.40018027 -61 170 C-62.16665613 171.83334004 -63.3333228 173.66667337 -64.5 175.5 C-65.36625 176.86125 -65.36625 176.86125 -66.25 178.25 C-71.5 186.5 -71.5 186.5 -73.25048828 189.25073242 C-74.41556948 191.08159753 -75.58060864 192.9124894 -76.74560547 194.7434082 C-79.68618321 199.36472713 -82.62752092 203.9855592 -85.5703125 208.60546875 C-91.06159314 217.22774274 -96.54608279 225.85403331 -102 234.5 C-108.04581782 244.08429281 -114.12979934 253.64410607 -120.21777344 263.20166016 C-123.14654812 267.80023761 -126.07320348 272.40016338 -129 277 C-132.52236094 282.53584258 -136.04520379 288.07137537 -139.5703125 293.60546875 C-145.54330846 302.9841203 -151.50350187 312.37047252 -157.43505859 321.77539062 C-163.5940394 331.53554673 -169.79813699 341.26705844 -176 351 C-177.65 350.34 -179.3 349.68 -181 349 C-179.62062154 344.49871345 -177.82719918 340.47516449 -175.65625 336.30078125 C-175.33119476 335.67296249 -175.00613953 335.04514374 -174.67123413 334.39830017 C-173.61837275 332.36747793 -172.55930541 330.33996725 -171.5 328.3125 C-170.76545466 326.89893606 -170.03124463 325.48519784 -169.29736328 324.07128906 C-165.13524764 316.06024599 -160.94773717 308.06242 -156.72851562 300.08129883 C-153.11452504 293.24042355 -149.55671778 286.37079206 -146 279.5 C-141.61547345 271.03102412 -137.21039834 262.57399951 -132.7578125 254.140625 C-129.31171841 247.60763881 -125.90377183 241.05512026 -122.5 234.5 C-118.26848641 226.35151042 -114.01702619 218.2142314 -109.73388672 210.09277344 C-104.97081037 201.05690927 -100.25305115 191.99744163 -95.53222656 182.93945312 C-93.02292092 178.12555256 -90.51136163 173.3128282 -88 168.5 C-86.99998887 166.58333914 -85.99998888 164.66667247 -85 162.75 C-70 134 -70 134 -55 105.25 C-54.50483887 104.30092773 -54.00967773 103.35185547 -53.49951172 102.37402344 C-52.50118384 100.46058875 -51.50281156 98.54717723 -50.50439453 96.63378906 C-47.97844349 91.79286364 -45.45330556 86.95151709 -42.9296875 82.109375 C-38.34481847 73.31403136 -33.75386578 64.52227902 -29.125 55.75 C-24.43843876 46.8667753 -19.82056063 37.9483574 -15.203125 29.02905273 C-10.17879114 19.32968135 -5.10498602 9.65712793 0 0 Z " fill="#FEDFB6" transform="translate(706,295)"/>
<path d="M0 0 C0.25056152 0.50635986 0.50112305 1.01271973 0.75927734 1.53442383 C6.57237878 13.26476163 12.5372037 24.90015073 18.6640625 36.46923828 C21.08433569 41.05413446 23.4788715 45.65245264 25.875 50.25 C26.37757324 51.21397705 26.88014648 52.1779541 27.39794922 53.17114258 C28.42132824 55.13422299 29.44460253 57.09735799 30.46777344 59.06054688 C32.97707908 63.87444744 35.48863837 68.6871718 38 73.5 C39.00001113 75.41666086 40.00001112 77.33332753 41 79.25 C41.495 80.19875 41.99 81.1475 42.5 82.125 C71 136.75 71 136.75 72.49951172 139.62426758 C73.5009169 141.54349172 74.50254499 143.46259957 75.50439453 145.3815918 C77.98472401 150.13320708 80.46131609 154.88669177 82.9296875 159.64453125 C88.07898828 169.55929142 93.29929826 179.42879283 98.625 189.25 C105.52686047 201.98995152 112.14214278 214.87040332 118.74813843 227.76535034 C119.12000275 228.49118317 119.49186707 229.21701599 119.875 229.96484375 C120.24001617 230.67738312 120.60503235 231.38992249 120.98110962 232.12405396 C124.06973856 238.1478665 127.20847022 244.14402299 130.37597656 250.12670898 C133.95722968 256.89718002 137.47917685 263.69794188 141 270.5 C145.35952156 278.92111533 149.7406482 287.32961369 154.16967773 295.71435547 C158.44771046 303.82531773 162.66055635 311.97007549 166.86547852 320.11914062 C169.5101946 325.23686171 172.16774688 330.34284377 174.9296875 335.3984375 C175.35886475 336.18782715 175.78804199 336.9772168 176.23022461 337.79052734 C177.01137475 339.22013478 177.80073772 340.64529817 178.59985352 342.06494141 C179.47569263 343.67089073 180.24898526 345.33202391 181 347 C180.67 347.99 180.34 348.98 180 350 C177.9375 350.6875 177.9375 350.6875 176 351 C175.14322917 349.65364583 174.28645833 348.30729167 173.4296875 346.9609375 C172.87007324 346.08155518 172.31045898 345.20217285 171.73388672 344.29614258 C170.47765984 342.3220482 169.22147606 340.34792639 167.96533203 338.3737793 C164.76953962 333.3514228 161.57318431 328.3294275 158.375 323.30859375 C152.40993648 313.9424993 146.45860549 304.56812243 140.53417969 295.17626953 C134.97501424 286.3678361 129.37816293 277.58344039 123.78222656 268.79833984 C120.85345187 264.19976238 117.92682309 259.59981973 115 255 C113.83334387 253.16665996 112.6666772 251.33332663 111.5 249.5 C109.16666667 245.83333333 106.83333333 242.16666667 104.5 238.5 C103.92258057 237.59266113 103.34516113 236.68532227 102.75024414 235.75048828 C101.58263731 233.91560775 100.415157 232.08064669 99.24780273 230.24560547 C96.34654836 225.68527838 93.44316787 221.12633409 90.53515625 216.5703125 C84.51815474 207.13814159 78.54147828 197.68309197 72.625 188.1875 C66.74413233 178.75034863 60.77943286 169.36979474 54.77441406 160.01123047 C50.78480244 153.79270379 46.81409844 147.56314537 42.875 141.3125 C36.87317186 131.7892066 30.82987446 122.29258555 24.78222656 112.79833984 C21.85345187 108.19976238 18.92682309 103.59981973 16 99 C14.83334387 97.16665996 13.6666772 95.33332663 12.5 93.5 C5.5 82.5 5.5 82.5 3.7487793 79.74804688 C2.5862238 77.92119713 1.42362638 76.09437406 0.26098633 74.26757812 C-2.71893164 69.58526765 -5.69804121 64.90244589 -8.67578125 60.21875 C-9.280271 59.26863037 -9.88476074 58.31851074 -10.50756836 57.33959961 C-11.6964467 55.46920275 -12.88350544 53.59764787 -14.06860352 51.72485352 C-16.6349473 47.675962 -19.21800659 43.64755985 -21.9140625 39.68359375 C-22.34549561 39.04164063 -22.77692871 38.3996875 -23.22143555 37.73828125 C-24.34333843 36.07693701 -25.48149606 34.42660051 -26.62109375 32.77734375 C-28 30 -28 30 -27.94921875 27.3671875 C-26.83384306 24.58563331 -25.57872346 23.20828889 -23.375 21.1875 C-20.62264773 18.58154945 -18.05711605 15.96945776 -15.625 13.0625 C-4.38034294 0 -4.38034294 0 0 0 Z " fill="#FEDFB6" transform="translate(280,295)"/>
<path d="M0 0 C14.90122616 30.29632153 14.90122616 30.29632153 13 36 C11.6796875 37.33203125 11.6796875 37.33203125 9.875 38.8125 C5.66846806 42.37594702 1.64167991 46.10128464 -2.375 49.875 C-6.54955873 53.78922421 -10.7312681 57.68812235 -15 61.5 C-19.22400134 65.2734412 -23.36633784 69.12833772 -27.5 73 C-32.44740894 77.63320981 -37.43103885 82.21649169 -42.484375 86.734375 C-46.03345633 89.93075259 -49.53738758 93.17506062 -53.04345703 96.41845703 C-56.68681361 99.78869523 -60.33895531 103.14898754 -64 106.5 C-68.17599631 110.32328927 -72.34152804 114.15765835 -76.5 118 C-82.15885767 123.22815526 -87.83382849 128.43844106 -93.51611328 133.64111328 C-96.01164405 135.92642494 -98.50576208 138.21327749 -101 140.5 C-103.9875941 143.23903248 -106.97545297 145.97777213 -109.96484375 148.71484375 C-115.15297047 153.46607559 -120.33273561 158.22608074 -125.5 163 C-132.14264017 169.13698573 -138.80911637 175.24768607 -145.47949219 181.35449219 C-151.16322346 186.55864692 -156.83959185 191.77047632 -162.5 197 C-168.15888968 202.22812079 -173.83382832 207.43844089 -179.51611328 212.64111328 C-182.01164405 214.92642494 -184.50576208 217.21327749 -187 219.5 C-189.9875941 222.23903248 -192.97545297 224.97777213 -195.96484375 227.71484375 C-201.15297123 232.46607629 -206.33258938 237.22623828 -211.5 242 C-213.66635598 244.00033678 -215.83308285 246.00027115 -218 248 C-218.8058252 248.7439502 -218.8058252 248.7439502 -219.62792969 249.50292969 C-225.33563316 254.76865733 -231.05536262 260.00110038 -237 265 C-238.32 264.34 -239.64 263.68 -241 263 C-241 260 -241 260 -239.49609375 258.23828125 C-238.81675781 257.60277344 -238.13742187 256.96726562 -237.4375 256.3125 C-234.01370875 253.08893046 -230.9380247 249.67049055 -227.86254883 246.12084961 C-224.86710761 242.70999656 -221.74434394 239.4221995 -218.625 236.125 C-213.76254574 230.96269539 -208.95037833 225.76652854 -204.2265625 220.4765625 C-200.05095874 215.83211902 -195.79527997 211.26096117 -191.55273438 206.67773438 C-189.01233522 203.9328251 -186.47465958 201.18540353 -183.9375 198.4375 C-183.44088867 197.89963867 -182.94427734 197.36177734 -182.43261719 196.80761719 C-177.72913902 191.71090244 -173.04229544 186.59903927 -168.35888672 181.48388672 C-165.61471132 178.48728269 -162.8684281 175.49261017 -160.12255859 172.49755859 C-157.84274634 170.01071125 -155.56340942 167.52343204 -153.28515625 165.03515625 C-148.03061651 159.29744044 -142.76253712 153.57254983 -137.48291016 147.85791016 C-132.76138303 142.74559385 -128.0583033 137.61652283 -123.35888672 132.48388672 C-120.61471132 129.48728269 -117.8684281 126.49261017 -115.12255859 123.49755859 C-112.84274634 121.01071125 -110.56340942 118.52343204 -108.28515625 116.03515625 C-103.03061651 110.29744044 -97.76253712 104.57254983 -92.48291016 98.85791016 C-87.76138303 93.74559385 -83.0583033 88.61652283 -78.35888672 83.48388672 C-75.61471132 80.48728269 -72.8684281 77.49261017 -70.12255859 74.49755859 C-67.84274634 72.01071125 -65.56340942 69.52343204 -63.28515625 67.03515625 C-58.03061651 61.29744044 -52.76253712 55.57254983 -47.48291016 49.85791016 C-42.30633676 44.25288452 -37.15207502 38.62753688 -32 33 C-30.18779908 31.02055919 -28.37531209 29.04138111 -26.5625 27.0625 C-26.11414795 26.57289795 -25.6657959 26.0832959 -25.20385742 25.57885742 C-22.77168162 22.92506318 -20.33322684 20.27730991 -17.88671875 17.63671875 C-17.36698486 17.07549316 -16.84725098 16.51426758 -16.31176758 15.93603516 C-15.28219146 14.82453716 -14.25209272 13.71352299 -13.22143555 12.60302734 C-9.81228261 8.91760867 -6.50913103 5.15902625 -3.3046875 1.29296875 C-2 0 -2 0 0 0 Z " fill="#FEDFB6" transform="translate(781,392)"/>
<path d="M0 0 C4.15233334 1.59025532 6.67768012 4.63795012 9.5625 7.875 C10.0877124 8.45435303 10.6129248 9.03370605 11.15405273 9.63061523 C12.24297711 10.83194471 13.32963378 12.03533344 14.4140625 13.24072266 C16.77915021 15.8643098 19.17174249 18.46232992 21.5625 21.0625 C22.47030272 22.0531558 23.37785482 23.04404132 24.28515625 24.03515625 C27.02222787 27.02454703 29.76096752 30.0124059 32.5 33 C35.23903248 35.9875941 37.97777213 38.97545297 40.71484375 41.96484375 C45.46607559 47.15297047 50.22608074 52.33273561 55 57.5 C60.22812079 63.15888968 65.43844089 68.83382832 70.64111328 74.51611328 C72.92642494 77.01164405 75.21327749 79.50576208 77.5 82 C80.23903248 84.9875941 82.97777213 87.97545297 85.71484375 90.96484375 C90.46607559 96.15297047 95.22608074 101.33273561 100 106.5 C105.22812079 112.15888968 110.43844089 117.83382832 115.64111328 123.51611328 C117.92642494 126.01164405 120.21327749 128.50576208 122.5 131 C125.23903248 133.9875941 127.97777213 136.97545297 130.71484375 139.96484375 C135.46607559 145.15297047 140.22608074 150.33273561 145 155.5 C151.13698573 162.14264017 157.24768607 168.80911637 163.35449219 175.47949219 C168.55864692 181.16322346 173.77047632 186.83959185 179 192.5 C184.22812079 198.15888968 189.43844089 203.83382832 194.64111328 209.51611328 C196.92642494 212.01164405 199.21327749 214.50576208 201.5 217 C204.23903248 219.9875941 206.97777213 222.97545297 209.71484375 225.96484375 C213.96353757 230.60422206 218.21640523 235.2395716 222.4855957 239.86010742 C223.48898225 240.94663771 224.49143621 242.03403002 225.49291992 243.12231445 C228.04464706 245.89375161 230.61044748 248.64960617 233.203125 251.3828125 C233.97076172 252.19975586 233.97076172 252.19975586 234.75390625 253.03320312 C235.72969425 254.07141098 236.71122938 255.10425586 237.69921875 256.13085938 C241 259.6618138 241 259.6618138 241 263 C239.68 263.66 238.36 264.32 237 265 C235.679603 263.781172 234.35920751 262.56234236 233.03881836 261.34350586 C231.87168828 260.26616772 230.70453265 259.18885726 229.53735352 258.11157227 C226.57900576 255.38100265 223.62098563 252.65008108 220.6640625 249.91796875 C213.95119051 243.71640903 207.22436015 237.5304313 200.48388672 231.35888672 C197.48728269 228.61471132 194.49261017 225.8684281 191.49755859 223.12255859 C189.01071125 220.84274634 186.52343204 218.56340942 184.03515625 216.28515625 C178.29744044 211.03061651 172.57254983 205.76253712 166.85791016 200.48291016 C161.74559385 195.76138303 156.61652283 191.0583033 151.48388672 186.35888672 C148.48728269 183.61471132 145.49261017 180.8684281 142.49755859 178.12255859 C140.01071125 175.84274634 137.52343204 173.56340942 135.03515625 171.28515625 C129.29744044 166.03061651 123.57254983 160.76253712 117.85791016 155.48291016 C112.74559385 150.76138303 107.61652283 146.0583033 102.48388672 141.35888672 C99.48728269 138.61471132 96.49261017 135.8684281 93.49755859 133.12255859 C91.01071125 130.84274634 88.52343204 128.56340942 86.03515625 126.28515625 C80.29744044 121.03061651 74.57254983 115.76253712 68.85791016 110.48291016 C63.74559385 105.76138303 58.61652283 101.0583033 53.48388672 96.35888672 C50.48728269 93.61471132 47.49261017 90.8684281 44.49755859 88.12255859 C42.01071125 85.84274634 39.52343204 83.56340942 37.03515625 81.28515625 C31.29744044 76.03061651 25.57254983 70.76253712 19.85791016 65.48291016 C15.24674375 61.22422467 10.62278317 56.97973526 5.9921875 52.7421875 C3.90946805 50.83566639 1.83215258 48.92344635 -0.2421875 47.0078125 C-0.77706787 46.51482666 -1.31194824 46.02184082 -1.86303711 45.51391602 C-3.34582502 44.14701042 -4.82725445 42.7786316 -6.30859375 41.41015625 C-8.80546099 39.17420983 -11.36063464 37.06454895 -14 35 C-13.40419819 31.65872872 -12.58384445 28.63945831 -11.328125 25.48828125 C-10.82925781 24.2338623 -10.82925781 24.2338623 -10.3203125 22.95410156 C-9.96710938 22.08237305 -9.61390625 21.21064453 -9.25 20.3125 C-8.89164063 19.42143555 -8.53328125 18.53037109 -8.1640625 17.61230469 C-5.71765106 11.59527655 -3.12158782 5.70290082 0 0 Z " fill="#FEDFB6" transform="translate(205,392)"/>
</svg>
